<?xml version="1.0" encoding="UTF-8"?><svg id="main_lockup_positive" xmlns="http://www.w3.org/2000/svg" xmlns:xlink="http://www.w3.org/1999/xlink" viewBox="0 0 426 178"><defs><style>.cls-1{fill:url(#radial-gradient);}.cls-1,.cls-2,.cls-3,.cls-4,.cls-5,.cls-6{stroke-width:0px;}.cls-2{fill:url(#radial-gradient-2);}.cls-3{fill:url(#radial-gradient-3);}.cls-5{fill:#8e6f3e;}.cls-6{fill:#fff;}</style><radialGradient id="radial-gradient" cx="63.16" cy="87.15" fx="63.16" fy="67.46" r="28.7" gradientUnits="userSpaceOnUse"><stop offset="0" stop-color="#fff"/><stop offset=".28" stop-color="#ebe3d3"/><stop offset=".92" stop-color="#d0b68f"/></radialGradient><radialGradient id="radial-gradient-2" cx="41.77" cy="1221.19" fx="30.62" fy="1236.64" r="37.28" gradientTransform="translate(127.31 1191.4) rotate(-180) scale(1 .9)" gradientUnits="userSpaceOnUse"><stop offset=".22" stop-color="#dcb843"/><stop offset=".95" stop-color="#8e6f3e"/></radialGradient><radialGradient id="radial-gradient-3" cx="74.35" cy="89.84" fx="74.35" fy="79.48" r="16.03" gradientUnits="userSpaceOnUse"><stop offset=".11" stop-color="#dcb843"/><stop offset=".95" stop-color="#8e6f3e"/></radialGradient></defs><rect class="cls-4" x="29.17" y="44.94" width="90.37" height="89.6" rx="8.52" ry="8.52"/><path class="cls-1" d="M47.91,90.29c-.45.73-.93,1.43-1.44,2.13-2.86,4.26-6.17,9.46-8.51,14.82-.13.3-.54.33-.67.02-2.58-6.03-3.46-13.09-3.03-19.9.08-5.31,1.02-10.6,3.02-15.29.13-.29.54-.29.67,0,2.87,6.56,7.2,12.9,10.36,17.55,0,.01-.02.03-.02.04,0,.01.02.02.02.03-.13.19-.27.4-.4.59ZM74.32,64.11s.02-.02.03-.02c.01,0,.03.02.04.02,4.64-3.16,10.98-7.49,17.55-10.36.29-.13.3-.55,0-.67-4.69-2.01-9.98-2.94-15.29-3.02-6.82-.43-13.88.45-19.9,3.03-.3.13-.28.53.02.67,5.36,2.35,10.56,5.66,14.82,8.51.7.51,1.41.99,2.13,1.44.2.13.4.27.59.4ZM51.12,86.34s5.85-7.52,9.3-10.96c3.39-3.38,10.76-9.01,10.76-9.01,0,0-10.87-6.93-15.45-9.84-1.92-1.22-3.35-1.01-5.07.42-3.38,2.83-6.45,5.92-9.23,9.34-1.34,1.65-1.34,2.98-.33,4.79,2.86,5.07,9.68,15.24,10.02,15.26ZM70.91,113.6s-7.52-5.85-10.96-9.3-9.01-10.76-9.01-10.76c0,0-6.93,10.87-9.84,15.45-1.22,1.92-1.01,3.35.42,5.07,2.83,3.38,5.92,6.45,9.34,9.23,1.65,1.34,2.98,1.34,4.79.33,5.07-2.86,15.24-9.68,15.26-10.02Z"/><path class="cls-2" d="M100.79,89.18c.45-.73.93-1.43,1.44-2.13,2.86-4.26,6.17-9.46,8.51-14.82.13-.3.54-.33.67-.02,2.58,6.03,3.46,13.09,3.03,19.9-.08,5.31-1.02,10.6-3.02,15.29-.13.29-.54.29-.67,0-2.87-6.56-7.2-12.9-10.36-17.55,0-.01.02-.03.02-.04,0-.01-.02-.02-.02-.03.13-.19.27-.4.4-.59ZM74.38,115.37s-.02.02-.03.02c-.01,0-.03-.02-.04-.02-4.64,3.16-10.98,7.49-17.55,10.36-.29.13-.3.55,0,.67,4.69,2.01,9.98,2.94,15.29,3.02,6.82.43,13.88-.45,19.9-3.03.3-.13.28-.53-.02-.67-5.36-2.35-10.56-5.66-14.82-8.51-.7-.51-1.41-.99-2.13-1.44-.2-.13-.4-.27-.59-.4ZM97.58,93.14s-5.85,7.52-9.3,10.96c-3.39,3.38-10.76,9.01-10.76,9.01,0,0,10.87,6.93,15.45,9.84,1.92,1.22,3.35,1.01,5.07-.42,3.38-2.83,6.45-5.92,9.23-9.34,1.34-1.65,1.34-2.98.33-4.79-2.86-5.07-9.68-15.24-10.02-15.26ZM77.79,65.88s7.52,5.85,10.96,9.3c3.38,3.39,9.01,10.76,9.01,10.76,0,0,6.93-10.87,9.84-15.45,1.22-1.92,1.01-3.35-.42-5.07-2.83-3.38-5.92-6.45-9.34-9.23-1.65-1.34-2.98-1.34-4.79-.33-5.07,2.86-15.24,9.68-15.26,10.02Z"/><path class="cls-3" d="M74.4,105.86c-2.05-1.68-6.22-5.14-8.58-7.5-2.77-2.77-5.29-5.62-7.5-8.49,1.68-2.05,5.14-6.21,7.5-8.58s6.47-5.79,8.52-7.47c2.07,1.69,6.2,5.13,8.55,7.47,2.36,2.36,5.82,6.53,7.5,8.58-2.21,2.87-4.73,5.72-7.5,8.49s-5.62,5.29-8.49,7.5Z"/><path class="cls-6" d="M74.34,76.41c2.17,1.8,5.25,4.42,7.13,6.29,1.9,1.9,4.55,5.02,6.35,7.19-1.91,2.38-4.04,4.74-6.35,7.05-2.31,2.31-4.67,4.43-7.05,6.35-2.17-1.8-5.3-4.45-7.19-6.35-2.31-2.31-4.43-4.67-6.35-7.05,1.8-2.17,4.45-5.3,6.35-7.19s4.95-4.5,7.11-6.29M74.34,71.24s-6.59,5.29-9.94,8.63c-3.31,3.31-8.63,9.95-8.63,9.95h0c2.41,3.26,5.32,6.64,8.63,9.95,3.31,3.31,9.95,8.63,9.95,8.63h0c3.26-2.41,6.64-5.32,9.95-8.63,3.31-3.31,6.22-6.69,8.63-9.95h0s-5.32-6.64-8.63-9.95c-3.31-3.31-9.96-8.63-9.96-8.63h0Z"/><path class="cls-4" d="M133.01,81.32v-3h115.99v2.73l-115.99.27Z"/><path class="cls-4" d="M271.28,81.32v-3h120.36v3h-120.36Z"/><path class="cls-4" d="M138.98,49.52h-5.97v-3h15.65v3h-5.97v18.56h-3.72v-18.56Z"/><path class="cls-4" d="M152.45,46.52h13.28v2.91h-9.59v6.34h8.84v2.87h-8.84v6.53h9.65v2.91h-13.34v-21.56Z"/><path class="cls-4" d="M169.88,64.99v-15.37l3.09-3.09h9.53l2.97,2.97v3.87h-3.66v-2.66l-1.34-1.34h-5.44l-1.47,1.47v12.97l1.47,1.47h5.44l1.34-1.34v-2.78h3.66v3.97l-2.97,2.97h-9.53l-3.09-3.09Z"/><path class="cls-4" d="M190.22,46.52h3.69v9.28h8.16v-9.28h3.69v21.56h-3.69v-9.03h-8.16v9.03h-3.69v-21.56Z"/><path class="cls-4" d="M219.59,46.52h12.56l3.09,3.09v15.37l-3.09,3.09h-12.56v-21.56ZM230.09,65.24l1.47-1.47v-12.94l-1.47-1.47h-6.81v15.87h6.81Z"/><path class="cls-4" d="M239.28,65.46h3.72v-16.31h-3.72v-2.62h11.19v2.62h-3.75v16.31h3.75v2.62h-11.19v-2.62Z"/><path class="cls-4" d="M254.8,46.52h12.59l2.97,2.97v7.56l-2.97,2.97h-8.91v8.06h-3.69v-21.56ZM265.36,57.27l1.28-1.31v-5.41l-1.28-1.28h-6.87v8h6.87Z"/><path class="cls-4" d="M274.46,46.52h3.69v18.56h8.59v3h-12.28v-21.56Z"/><path class="cls-4" d="M290.3,64.99v-15.37l3.09-3.09h9.87l3.06,3.09v15.37l-3.06,3.09h-9.87l-3.09-3.09ZM301.2,65.24l1.44-1.47v-12.94l-1.44-1.47h-5.75l-1.47,1.47v12.94l1.47,1.47h5.75Z"/><path class="cls-4" d="M311.39,46.52h5.69l5.56,18.43,5.59-18.43h5.69v21.56h-3.53v-18.84l-5.78,18.84h-4.28l-5.72-18.84v18.84h-3.22v-21.56Z"/><path class="cls-4" d="M343.6,46.52h5.31l6.25,21.56h-3.72l-1.5-5.5h-7.59l-1.47,5.5h-3.53l6.25-21.56ZM343.16,59.68h6l-3-11.06-3,11.06Z"/><path class="cls-4" d="M358.19,64.99v-15.37l3.09-3.09h9.53l2.97,2.97v3.87h-3.66v-2.66l-1.34-1.34h-5.44l-1.47,1.47v12.97l1.47,1.47h5.44l1.34-1.34v-2.78h3.66v3.97l-2.97,2.97h-9.53l-3.09-3.09Z"/><path class="cls-4" d="M382.97,61.27l-6.72-14.75h3.97l4.75,11.06,4.81-11.06h3.59l-6.72,14.75v6.81h-3.69v-6.81Z"/><path class="cls-5" d="M389.77,91.61v1.11h-1.91v5h-1.29v-5h-1.93v-1.11h5.13ZM395.96,97.73v-1.93c0-1.63.1-2.76.13-3.33h-.05c-.54,1.7-1.11,3.56-1.68,5.24h-1.21c-.49-1.75-1.06-3.59-1.5-5.24h-.05c.03.57.08,1.65.08,3.59v1.68h-1.19v-6.11h2.04c.46,1.47.98,3.07,1.32,4.31h.03c.28-.98.95-2.89,1.45-4.31h1.91v6.11h-1.26Z"/><path class="cls-5" d="M193.39,100.54c3.41,0,6.27.81,9.5,2.17v9.31h-5.4l-1.18-5.28c-1.68-.81-3.85-1.36-5.96-1.36-.56,0-1.24.06-1.61.12-2.05,2.54-3.04,5.83-3.04,10.43,0,9.12,4.22,12.85,8.81,12.85,3.23,0,5.52-1.43,7.45-3.66l2.42,2.3c-2.48,3.97-6.76,6.7-12.1,6.7-9,0-14.71-6.52-14.71-16.32s5.96-17.25,15.82-17.25Z"/><path class="cls-5" d="M224.99,129.78c-2.67,2.73-4.96,4.28-9.12,4.28-5.4,0-8.87-3.66-8.87-8.32s2.05-9.31,17.5-10.74v-1.8c0-6.52-1.61-8.44-5.46-8.44-.74,0-2.46.04-3.49,1.07l-.48,6.17h-5.71v-9.23c3.35-1.24,7.32-2.23,11.23-2.23,8.56,0,11.73,5.15,11.73,12.66v13.22c0,2.61,1.12,3.35,2.67,3.35.43,0,1.12-.19,1.49-.31l.5,2.98c-1.12.81-2.92,1.49-5.34,1.49-3.23,0-5.65-1.61-6.64-4.16ZM224.49,126.43v-7.32c-3.79.31-7.01,1.05-9.56,1.86-.43.93-.62,1.86-.62,2.79,0,3.04,1.61,5.21,4.9,5.21,2.48,0,3.91-1.12,5.28-2.54Z"/><path class="cls-5" d="M267.21,122.52c0,1.8.19,5.52.25,6.52l4.78.5v3.23l-11.85,1.18c-.25-1.49-.43-3.16-.56-4.84-2.92,3.29-6.08,4.96-9.74,4.96-7.38,0-12.35-6.83-12.35-16.13,0-10.18,5.65-17.38,14.34-17.38,2.92,0,5.34.81,7.32,2.05v-4.22c0-1.55-.06-15.45-.25-16.38l-5.4-.95v-2.73l13.25-2.32c.12,3.29.21,18.6.21,22.38v24.14ZM251.95,105.33c-.62,0-1.3.06-1.92.19-3.04,2.05-4.47,5.83-4.47,11.54,0,7.88,3.16,11.73,8.13,11.73,2.17,0,3.91-.87,5.71-2.3v-14.89c0-3.48-3.23-6.27-7.45-6.27Z"/><path class="cls-5" d="M300.03,127.16c-2.42,3.91-6.76,6.7-12.66,6.7-9.68,0-15.33-6.89-15.33-16.57,0-8.87,5.83-16.88,15.52-16.88,7.07,0,12.29,5.83,12.41,14.03-.56.99-1.24,1.92-2.11,2.73h-17.75c.5,8.25,5.4,11.42,9.43,11.42,3.78,0,6.08-1.49,8.13-3.72l2.36,2.3ZM280.11,113.44c5.71-.06,12.97-.19,12.97-.5,0-5.28-2.98-8.38-7.45-8.38-.56,0-1.18.06-1.74.12-2.36,2.17-3.48,5.15-3.78,8.75Z"/><path class="cls-5" d="M307.63,112.78c0-1.61-.06-5.71-.19-6.64l-5.4-.68v-3.79l12.72-.87c.12,1.24.19,3.04.25,4.78,3.04-2.92,5.83-5.03,9.68-5.03s6.7,2.11,8.07,5.52c3.23-3.23,6.14-5.52,10.18-5.52,6.08,0,9.12,4.78,9.12,11.54v17.13c1.49.68,2.92,1.12,4.53,1.36v2.86h-16.07v-2.98c1.43-.25,2.42-.5,3.72-1.18v-16.45c0-5.28-2.11-6.45-4.84-6.45-1.74,0-3.79.87-5.9,2.17.19,1.06.31,2.3.31,3.54v17.19c1.24.68,2.17.93,3.6,1.18v2.98h-15.14v-2.98c1.43-.25,2.42-.5,3.66-1.18v-16.45c0-5.28-2.05-6.45-4.78-6.45-1.68,0-3.66.81-5.65,1.99v20.91c1.24.68,2.17.93,3.6,1.18v2.98h-16.01v-2.86c1.55-.31,3.1-.62,4.53-1.36v-16.45Z"/><path class="cls-5" d="M373.51,135.74c-2.3,5.9-4.96,9.8-9.56,9.8-2.05,0-3.48-.62-4.9-1.68l1-4.72c1.86,0,4.4-.19,6.88-.37.81-1.3,1.49-2.79,2.17-4.59l-12.41-28.11c-1.43-.68-1.8-1.05-3.35-1.3v-3.6h15.89v3.54c-1.55.25-2.54.5-3.91,1.24l7.45,18.43,6.83-18.43c-1.24-.68-2.36-.99-3.85-1.24v-3.54h13.9v3.6c-1.55.25-3.1.62-4.53,1.3l-11.6,29.66Z"/><path class="cls-5" d="M160.12,133.44h18.89v-3.36c-1.54-.26-3.07-.67-4.55-1.35l-14.77-40.9h-8.81l-14.89,40.9c-1.61.74-3.29,1.18-4.96,1.43v3.29h15.76v-3.29c-1.74-.25-3.29-.68-4.84-1.43l3.29-9.43h16.63l3.23,9.43c-1.61.74-3.29,1.18-4.96,1.43v3.29ZM146.84,114.58l6.76-19.42,6.64,19.42h-13.4Z"/></svg>