<?xml version="1.0" encoding="UTF-8" standalone="no"?>
<svg
   id="main_lockup_positive"
   viewBox="0 0 426 178"
   version="1.1"
   sodipodi:docname="TDA-logo-negative.svg"
   inkscape:version="1.3.2 (091e20e, 2023-11-25)"
   xmlns:inkscape="http://www.inkscape.org/namespaces/inkscape"
   xmlns:sodipodi="http://sodipodi.sourceforge.net/DTD/sodipodi-0.dtd"
   xmlns:xlink="http://www.w3.org/1999/xlink"
   xmlns="http://www.w3.org/2000/svg"
   xmlns:svg="http://www.w3.org/2000/svg">
  <sodipodi:namedview
     id="namedview33"
     pagecolor="#ffffff"
     bordercolor="#000000"
     borderopacity="0.25"
     inkscape:showpageshadow="2"
     inkscape:pageopacity="0.0"
     inkscape:pagecheckerboard="0"
     inkscape:deskcolor="#d1d1d1"
     inkscape:zoom="2.0305164"
     inkscape:cx="213"
     inkscape:cy="89.139884"
     inkscape:window-width="1392"
     inkscape:window-height="1027"
     inkscape:window-x="0"
     inkscape:window-y="25"
     inkscape:window-maximized="0"
     inkscape:current-layer="layer2" />
  <defs
     id="defs7">
    <style
       id="style1">.cls-1{fill:url(#radial-gradient);}.cls-1,.cls-2,.cls-3,.cls-4,.cls-5,.cls-6{stroke-width:0px;}.cls-2{fill:url(#radial-gradient-2);}.cls-3{fill:url(#radial-gradient-3);}.cls-5{fill:#8e6f3e;}.cls-6{fill:#fff;}</style>
    <radialGradient
       id="radial-gradient"
       cx="63.16"
       cy="87.15"
       fx="63.16"
       fy="67.46"
       r="28.7"
       gradientUnits="userSpaceOnUse">
      <stop
         offset="0"
         stop-color="#fff"
         id="stop1" />
      <stop
         offset=".28"
         stop-color="#ebe3d3"
         id="stop2" />
      <stop
         offset=".92"
         stop-color="#d0b68f"
         id="stop3" />
    </radialGradient>
    <radialGradient
       id="radial-gradient-2"
       cx="41.77"
       cy="1221.19"
       fx="30.62"
       fy="1236.64"
       r="37.28"
       gradientTransform="translate(127.31 1191.4) rotate(-180) scale(1 .9)"
       gradientUnits="userSpaceOnUse">
      <stop
         offset=".22"
         stop-color="#dcb843"
         id="stop4" />
      <stop
         offset=".95"
         stop-color="#8e6f3e"
         id="stop5" />
    </radialGradient>
    <radialGradient
       id="radial-gradient-3"
       cx="74.35"
       cy="89.84"
       fx="74.35"
       fy="79.48"
       r="16.03"
       gradientUnits="userSpaceOnUse">
      <stop
         offset=".11"
         stop-color="#dcb843"
         id="stop6" />
      <stop
         offset=".95"
         stop-color="#8e6f3e"
         id="stop7" />
    </radialGradient>
    <radialGradient
       id="radial-gradient-7"
       cx="1252.52"
       cy="268.20999"
       fx="1252.52"
       fy="248.52"
       r="28.700001"
       xlink:href="#radial-gradient-83"
       gradientTransform="matrix(0.96517623,0,0,0.98577454,-1145.8155,-177.12046)" />
    <radialGradient
       id="radial-gradient-83"
       cx="456.51999"
       cy="339.20999"
       fx="456.51999"
       fy="319.51999"
       r="28.700001"
       gradientUnits="userSpaceOnUse">
      <stop
         offset="0"
         stop-color="#fff"
         id="stop1-8" />
      <stop
         offset=".28"
         stop-color="#ebe3d3"
         id="stop2-1" />
      <stop
         offset=".92"
         stop-color="#d0b68f"
         id="stop3-5" />
    </radialGradient>
    <radialGradient
       id="radial-gradient-8"
       cx="1233.13"
       cy="950.25"
       fx="1221.98"
       fy="965.70001"
       r="37.279999"
       gradientTransform="matrix(-0.96517623,0,0,-0.88719709,1274.8851,935.4444)"
       xlink:href="#radial-gradient-2-3" />
    <radialGradient
       id="radial-gradient-2-3"
       cx="2029.13"
       cy="879.25"
       fx="2017.98"
       fy="894.70001"
       r="37.279999"
       gradientTransform="matrix(-1,0,0,-0.9,2508.04,1135.72)"
       gradientUnits="userSpaceOnUse">
      <stop
         offset=".22"
         stop-color="#dcb843"
         id="stop4-5" />
      <stop
         offset=".95"
         stop-color="#8e6f3e"
         id="stop5-4" />
    </radialGradient>
    <radialGradient
       id="radial-gradient-9"
       cx="1263.71"
       cy="270.89999"
       fx="1263.71"
       fy="260.54999"
       r="16.030001"
       gradientUnits="userSpaceOnUse"
       gradientTransform="matrix(0.96517623,0,0,0.98577454,-1145.8155,-177.12046)">
      <stop
         offset=".11"
         stop-color="#ceb990"
         id="stop8" />
      <stop
         offset=".27"
         stop-color="#c8b288"
         id="stop9" />
      <stop
         offset=".51"
         stop-color="#b79e73"
         id="stop10" />
      <stop
         offset=".81"
         stop-color="#9c7f50"
         id="stop11" />
      <stop
         offset=".95"
         stop-color="#8e6f3e"
         id="stop12" />
    </radialGradient>
  </defs>
  <g
     inkscape:groupmode="layer"
     id="layer2"
     inkscape:label="Next">
    <rect
       class="cls-27"
       x="30.28067"
       y="45.664581"
       width="87.222977"
       height="88.325394"
       rx="8.2233019"
       ry="8.3987999"
       id="rect17"
       style="stroke-width:0px" />
    <path
       class="cls-31"
       d="M 109.27066,135.96153 H 38.503943 c -5.598022,0 -10.153654,-4.65286 -10.153654,-10.37035 V 54.073238 c 0,-5.717492 4.555632,-10.370348 10.153654,-10.370348 h 70.766717 c 5.59803,0 10.15366,4.652856 10.15366,10.370348 v 71.517942 c 0,5.71749 -4.55563,10.37035 -10.15366,10.37035 z M 38.503943,47.63613 c -3.474635,0 -6.292949,2.88832 -6.292949,6.42725 v 71.51794 c 0,3.54879 2.827966,6.42725 6.292949,6.42725 h 70.766717 c 3.47464,0 6.29295,-2.88832 6.29295,-6.42725 V 54.06338 c 0,-3.548788 -2.82796,-6.42725 -6.29295,-6.42725 z"
       id="path17-3"
       style="fill:#cfb991;stroke-width:0px" />
    <rect
       class="cls-27"
       x="30.28067"
       y="45.664581"
       width="87.222977"
       height="88.325394"
       rx="8.2233019"
       ry="8.3987999"
       id="rect66"
       style="stroke-width:0px" />
    <path
       class="cls-26"
       d="m 48.368044,90.379314 c -0.434329,0.719616 -0.897614,1.409658 -1.389854,2.0997 -2.760404,4.1994 -5.955137,9.325426 -8.21365,14.609176 -0.125472,0.29574 -0.521195,0.32531 -0.646668,0.0197 -2.490154,-5.94422 -3.339509,-12.90379 -2.924484,-19.616915 0.07722,-5.234463 0.98448,-10.44921 2.914833,-15.072493 0.125473,-0.285874 0.521195,-0.285874 0.646668,0 2.770055,6.466681 6.949269,12.716492 9.999225,17.300343 0,0.0099 -0.0193,0.02957 -0.0193,0.03943 0,0.0099 0.0193,0.01972 0.0193,0.02957 -0.125472,0.187297 -0.260597,0.394309 -0.38607,0.581607 z M 73.858348,64.561879 c 0,0 0.0193,-0.01972 0.02895,-0.01972 0.0097,0 0.02896,0.01972 0.03861,0.01972 4.478418,-3.115047 10.597635,-7.383451 16.938843,-10.212624 0.279901,-0.128151 0.289553,-0.542176 0,-0.660469 -4.526676,-1.981407 -9.632459,-2.898177 -14.757544,-2.977039 -6.582502,-0.423883 -13.396646,0.443598 -19.207007,2.986897 -0.289553,0.12815 -0.27025,0.52246 0.0193,0.660469 5.173345,2.31657 10.192261,5.579484 14.303912,8.388941 0.675623,0.502745 1.360898,0.975917 2.055825,1.419515 0.193036,0.128151 0.386071,0.26616 0.569454,0.39431 z M 51.46626,86.475647 c 0,0 5.646281,-7.413024 8.976139,-10.804089 3.271947,-3.331918 10.385296,-8.881828 10.385296,-8.881828 0,0 -10.491466,-6.831418 -14.911973,-9.700022 -1.853138,-1.202645 -3.23334,-0.995632 -4.893443,0.414026 -3.262296,2.789741 -6.225387,5.835785 -8.908577,9.207134 -1.293336,1.626528 -1.293336,2.937608 -0.318508,4.72186 2.760404,4.997877 9.342906,15.023204 9.671066,15.042919 z m 19.100837,26.872213 c 0,0 -7.258125,-5.76678 -10.578331,-9.1677 -3.262296,-3.34178 -8.696238,-10.606936 -8.696238,-10.606936 0,0 -6.688671,10.715366 -9.497334,15.230216 -1.177515,1.89269 -0.974828,3.30235 0.405374,4.99788 2.731449,3.33192 5.713843,6.35824 9.014746,9.0987 1.592541,1.32093 2.876225,1.32093 4.623194,0.3253 4.893443,-2.81931 14.709286,-9.5423 14.728589,-9.87746 z"
       id="path67"
       style="fill:url(#radial-gradient-7);stroke-width:0px" />
    <path
       class="cls-24"
       d="m 99.406564,89.275247 c 0.434329,-0.719616 0.897616,-1.409658 1.389856,-2.0997 2.7604,-4.199399 5.95513,-9.325427 8.21365,-14.609179 0.12547,-0.295732 0.52119,-0.325305 0.64667,-0.01971 2.49015,5.94422 3.33951,12.903789 2.92448,19.616913 -0.0772,5.234463 -0.98448,10.449209 -2.91483,15.072489 -0.12548,0.28588 -0.5212,0.28588 -0.64667,0 -2.77006,-6.46667 -6.94927,-12.716488 -9.999227,-17.300339 0,-0.0099 0.0193,-0.02957 0.0193,-0.03943 0,-0.0099 -0.0193,-0.01972 -0.0193,-0.02957 0.125473,-0.187298 0.260598,-0.39431 0.386071,-0.581607 z M 73.916259,115.09268 c 0,0 -0.0193,0.0197 -0.02896,0.0197 -0.0097,0 -0.02895,-0.0197 -0.03861,-0.0197 -4.478417,3.11505 -10.597635,7.38345 -16.938842,10.21263 -0.279902,0.12815 -0.289553,0.54217 0,0.66047 4.526676,1.9814 9.632458,2.89817 14.757544,2.97703 6.582502,0.42389 13.396646,-0.44359 19.207007,-2.98689 0.289553,-0.12815 0.270249,-0.52246 -0.0193,-0.66047 -5.173344,-2.31657 -10.192261,-5.57949 -14.303911,-8.38894 -0.675624,-0.50275 -1.360899,-0.97592 -2.055826,-1.41952 -0.193035,-0.12815 -0.38607,-0.26616 -0.569454,-0.39431 z M 96.308347,93.178914 c 0,0 -5.646281,7.413026 -8.976139,10.804086 -3.271947,3.33192 -10.385296,8.88183 -10.385296,8.88183 0,0 10.491466,6.83142 14.911973,9.70002 1.853138,1.20265 3.23334,0.99564 4.893443,-0.41402 3.262292,-2.78974 6.225392,-5.83579 8.908582,-9.20714 1.29333,-1.62652 1.29333,-2.9376 0.3185,-4.72186 -2.7604,-4.99787 -9.342903,-15.023201 -9.671063,-15.042916 z M 77.20751,66.3067 c 0,0 7.258125,5.766781 10.578331,9.167703 3.262296,3.341776 8.696238,10.606934 8.696238,10.606934 0,0 6.688671,-10.715369 9.497331,-15.230216 1.17752,-1.892687 0.97483,-3.302345 -0.40537,-4.997877 -2.73145,-3.331918 -5.713843,-6.358246 -9.014747,-9.098699 -1.592541,-1.320938 -2.876225,-1.320938 -4.623194,-0.325306 -4.893444,2.819315 -14.709286,9.542298 -14.728589,9.877461 z"
       id="path68"
       style="fill:url(#radial-gradient-8);stroke-width:0px" />
    <path
       class="cls-23"
       d="m 73.935562,105.71797 c -1.978611,-1.65611 -6.003396,-5.06689 -8.281212,-7.393313 -2.673538,-2.730595 -5.105782,-5.540053 -7.238822,-8.369226 1.611845,-2.01098 4.941703,-6.111802 7.238822,-8.457945 2.277816,-2.326428 6.24469,-5.707635 8.223302,-7.363736 1.997914,1.665959 5.984092,5.057023 8.252256,7.363736 2.277816,2.326428 5.617326,6.437107 7.238822,8.457945 -2.133039,2.829173 -4.565284,5.638631 -7.238822,8.369226 -2.673538,2.730593 -5.42429,5.214743 -8.194346,7.393313 z"
       id="path69"
       style="fill:url(#radial-gradient-9);stroke-width:0px" />
    <path
       class="cls-35"
       d="m 73.877652,76.686906 c 2.094432,1.774394 5.067175,4.357123 6.881706,6.200522 1.746969,1.784252 4.275731,4.81058 6.128869,7.087719 -1.843486,2.346143 -3.899312,4.672571 -6.128869,6.94971 -2.229557,2.277139 -4.507373,4.366983 -6.804492,6.259673 -2.094433,-1.7744 -5.115434,-4.386701 -6.939617,-6.259673 -2.229557,-2.277139 -4.275731,-4.603567 -6.128869,-6.94971 1.737317,-2.139131 4.295034,-5.224605 6.128869,-7.087719 1.824183,-1.863114 4.777622,-4.435986 6.862403,-6.200522 m 0,-5.096454 c 0,0 -6.360512,5.214747 -9.593852,8.507234 -3.194733,3.262914 -8.329471,9.808457 -8.329471,9.808457 v 0 c 2.326075,3.213625 5.134738,6.545542 8.329471,9.808456 3.194733,3.262911 9.603503,8.507231 9.603503,8.507231 v 0 c 3.146475,-2.37571 6.40877,-5.24432 9.603504,-8.507231 3.194733,-3.262914 6.003396,-6.594831 8.329471,-9.808456 v 0 c 0,0 -5.134738,-6.545543 -8.329471,-9.808457 -3.194734,-3.262914 -9.613155,-8.507234 -9.613155,-8.507234 z"
       id="path70"
       style="fill:#ffffff;stroke-width:0px" />
    <path
       class="cls-30"
       d="M 133.46763,80.689151 V 77.63325 H 249.1054 v 2.779884 z"
       id="path199"
       style="fill:#c4bfc0;stroke-width:0px" />
    <path
       class="cls-30"
       d="M 271.3141,80.689151 V 77.63325 h 119.99071 v 3.055901 z"
       id="path200"
       style="fill:#c4bfc0;stroke-width:0px" />
    <path
       class="cls-30"
       d="m 139.42277,48.306457 h -5.94549 v -3.055901 h 15.6069 v 3.055901 h -5.94548 v 18.897298 h -3.70628 V 48.306457 Z"
       id="path201"
       style="fill:#c4bfc0;stroke-width:0px" />
    <path
       class="cls-30"
       d="m 152.84837,45.250556 h 13.24222 v 2.957324 h -9.5649 v 6.456823 h 8.81206 v 2.92775 h -8.81206 v 6.653978 h 9.62281 v 2.957324 h -13.30013 z"
       id="path202"
       style="fill:#c4bfc0;stroke-width:0px" />
    <path
       class="cls-30"
       d="M 170.2312,64.059134 V 48.405035 l 3.08856,-3.144621 h 9.49733 l 2.96309,3.026328 v 3.943098 h -3.64836 v -2.701022 l -1.3416,-1.370227 h -5.42429 l -1.46707,1.498377 v 13.199521 l 1.46707,1.498378 h 5.42429 l 1.3416,-1.370227 v -2.829173 h 3.64836 v 4.041676 l -2.96309,3.026327 h -9.49733 l -3.08856,-3.154478 z"
       id="path203"
       style="fill:#c4bfc0;stroke-width:0px" />
    <path
       class="cls-30"
       d="m 190.50955,45.250556 h 3.67732 v 9.453578 h 8.12678 v -9.453578 h 3.67732 v 21.953199 h -3.67732 v -9.197276 h -8.12678 v 9.197276 h -3.67732 z"
       id="path204"
       style="fill:#c4bfc0;stroke-width:0px" />
    <path
       class="cls-30"
       d="m 219.78334,45.250556 h 12.51834 l 3.07891,3.144621 v 15.654099 l -3.07891,3.154479 h -12.51834 z m 10.47216,19.06488 1.46707,-1.498378 V 49.64711 l -1.46707,-1.498377 h -6.79484 v 16.166703 z"
       id="path205"
       style="fill:#c4bfc0;stroke-width:0px" />
    <path
       class="cls-30"
       d="m 239.40538,64.532306 h 3.70627 V 47.922005 h -3.70627 v -2.671449 h 11.14778 v 2.671449 h -3.73523 v 16.610301 h 3.73523 v 2.671449 h -11.14778 z"
       id="path206"
       style="fill:#c4bfc0;stroke-width:0px" />
    <path
       class="cls-30"
       d="m 254.8868,45.250556 h 12.55694 l 2.9631,3.026328 v 7.698899 l -2.9631,3.026328 h -8.87962 v 8.211502 H 254.8868 V 45.260414 Z m 10.53007,10.942097 1.27404,-1.340653 v -5.500622 l -1.27404,-1.301222 h -6.85275 v 8.142497 z"
       id="path207"
       style="fill:#c4bfc0;stroke-width:0px" />
    <path
       class="cls-30"
       d="m 274.47988,45.250556 h 3.67732 v 18.897298 h 8.57077 v 3.055901 H 274.48953 V 45.250556 Z"
       id="path208"
       style="fill:#c4bfc0;stroke-width:0px" />
    <path
       class="cls-30"
       d="M 290.27981,64.059134 V 48.405035 l 3.07892,-3.144621 h 9.84479 l 3.04996,3.144621 v 15.654099 l -3.04996,3.154479 h -9.84479 z m 10.86789,0.256302 1.42846,-1.498378 V 49.64711 l -1.42846,-1.498377 h -5.73315 l -1.46707,1.498377 v 13.169948 l 1.46707,1.498378 z"
       id="path209"
       style="fill:#c4bfc0;stroke-width:0px" />
    <path
       class="cls-30"
       d="m 311.30135,45.250556 h 5.66559 l 5.54976,18.769147 5.57872,-18.769147 h 5.66558 v 21.953199 h -3.52289 V 48.020582 l -5.7621,19.183173 h -4.26608 l -5.70419,-19.183173 v 19.183173 h -3.20439 z"
       id="path210"
       style="fill:#c4bfc0;stroke-width:0px" />
    <path
       class="cls-30"
       d="m 343.42242,45.250556 h 5.29881 l 6.23504,21.953199 H 351.25 l -1.49603,-5.599199 h -7.56698 l -1.46707,5.599199 h -3.52289 l 6.23504,-21.953199 z m -0.44398,13.396676 h 5.98409 l -2.99205,-11.267403 z"
       id="path211"
       style="fill:#c4bfc0;stroke-width:0px" />
    <path
       class="cls-30"
       d="M 357.96762,64.059134 V 48.405035 l 3.07892,-3.144621 h 9.49733 l 2.96309,3.026328 v 3.943098 h -3.64837 V 49.528818 L 368.517,48.158591 h -5.42429 l -1.46707,1.498377 v 13.199521 l 1.46707,1.498378 h 5.42429 l 1.34159,-1.370227 v -2.829173 h 3.64837 v 4.041676 l -2.96309,3.026327 h -9.49733 l -3.07892,-3.154478 z"
       id="path212"
       style="fill:#c4bfc0;stroke-width:0px" />
    <path
       class="cls-30"
       d="m 382.66648,60.27376 -6.69832,-15.013346 h 3.95722 l 4.73902,11.267403 4.79692,-11.267403 h 3.58081 L 386.3438,60.27376 v 6.939853 h -3.67732 z"
       id="path213"
       style="fill:#c4bfc0;stroke-width:0px" />
    <path
       class="cls-31"
       d="m 389.45167,91.167934 v 1.133641 h -1.9014 v 5.096454 h -1.28368 v -5.096454 h -1.93035 v -1.133641 z m 6.17713,6.230095 V 95.42648 c 0,-1.656101 0.10617,-2.809458 0.12547,-3.391064 h -0.0483 c -0.5405,1.734963 -1.10995,3.62765 -1.66975,5.33304 h -1.20647 c -0.49224,-1.784252 -1.05204,-3.647366 -1.48637,-5.33304 h -0.0483 c 0.029,0.581606 0.0772,1.685674 0.0772,3.647365 v 1.70539 h -1.18716 v -6.220237 h 2.02687 c 0.46328,1.498377 0.97482,3.124905 1.31264,4.386697 h 0.029 c 0.2799,-0.995633 0.95552,-2.947466 1.43811,-4.386697 h 1.9014 v 6.220237 h -1.26438 z"
       id="path214"
       style="fill:#cfb991;stroke-width:0px" />
    <path
       class="cls-31"
       d="m 193.66567,100.25678 c 3.40708,0 6.24469,0.81819 9.46838,2.20813 v 9.47329 h -5.38568 l -1.17752,-5.37247 c -1.66975,-0.81819 -3.83175,-1.38994 -5.93583,-1.38994 -0.5598,0 -1.23542,0.0591 -1.61184,0.12815 -2.04618,2.59259 -3.03066,5.94422 -3.03066,10.61679 0,9.286 4.20817,13.08123 8.78311,13.08123 3.21403,0 5.5015,-1.44909 7.4222,-3.72623 l 2.41294,2.33629 c -2.47085,4.04167 -6.74658,6.82156 -12.0647,6.82156 -8.96649,0 -14.66103,-6.63426 -14.66103,-16.62016 0,-9.9859 5.93584,-17.5665 15.78063,-17.5665 z"
       id="path215"
       style="fill:#cfb991;stroke-width:0px" />
    <path
       class="cls-31"
       d="m 225.15937,130.03702 c -2.66388,2.77989 -4.95135,4.35713 -9.09196,4.35713 -5.38568,0 -8.85066,-3.72623 -8.85066,-8.46781 0,-4.74157 2.04617,-9.47329 17.45038,-10.93224 v -1.83354 c 0,-6.63426 -1.61184,-8.59595 -5.44359,-8.59595 -0.74319,0 -2.45155,0.0394 -3.47463,1.09421 l -0.48259,6.28924 h -5.69454 v -9.40429 c 3.33951,-1.26179 7.29673,-2.27714 11.19604,-2.27714 8.54181,0 11.68829,5.24432 11.68829,12.89393 v 13.45583 c 0,2.65173 1.10995,3.41078 2.66388,3.41078 0.43433,0 1.10996,-0.1873 1.48637,-0.31545 l 0.49224,3.03618 c -1.10995,0.8182 -2.90518,1.5181 -5.31812,1.5181 -3.21403,0 -5.62697,-1.64625 -6.62111,-4.22898 z m -0.49224,-3.41078 v -7.45245 c -3.77383,0.31545 -6.98787,1.07449 -9.52628,1.89269 -0.43433,0.94634 -0.61772,1.89268 -0.61772,2.83903 0,3.09533 1.61185,5.30346 4.88379,5.30346 2.47086,0 3.89932,-1.13364 5.26021,-2.59258 z"
       id="path216"
       style="fill:#cfb991;stroke-width:0px" />
    <path
       class="cls-31"
       d="m 267.26036,122.64371 c 0,1.83355 0.18338,5.62878 0.25095,6.63427 l 4.76797,0.50274 v 3.28263 l -11.81376,1.20265 c -0.25095,-1.5181 -0.43433,-3.22349 -0.5598,-4.92888 -2.90518,3.35164 -6.06131,5.05703 -9.70967,5.05703 -7.3643,0 -12.31565,-6.94971 -12.31565,-16.43286 0,-10.36049 5.62697,-17.69466 14.29426,-17.69466 2.90518,0 5.31812,0.8182 7.29673,2.07999 v -4.29798 c 0,-1.577239 -0.0579,-15.732961 -0.25095,-16.679305 l -5.38568,-0.966059 v -2.779884 l 13.21326,-2.365859 c 0.12548,3.351633 0.21234,18.936729 0.21234,22.791107 v 24.58522 z m -15.22083,-17.50735 c -0.61771,0 -1.30299,0.0592 -1.9207,0.1873 -3.03065,2.07998 -4.45911,5.94422 -4.45911,11.75043 0,8.0242 3.15612,11.94759 8.10748,11.94759 2.16199,0 3.89931,-0.8872 5.69454,-2.33629 v -15.16121 c 0,-3.53893 -3.21404,-6.37796 -7.42221,-6.37796 z"
       id="path217"
       style="fill:#cfb991;stroke-width:0px" />
    <path
       class="cls-31"
       d="m 299.97984,127.35572 c -2.41295,3.98253 -6.74659,6.82156 -12.62451,6.82156 -9.65176,0 -15.27874,-7.01872 -15.27874,-16.87646 0,-9.03956 5.82001,-17.19191 15.47178,-17.19191 7.05543,0 12.24808,5.94422 12.37355,14.28387 -0.5598,1.01535 -1.23542,1.96169 -2.10408,2.77989 h -17.69168 c 0.49224,8.3988 5.38568,11.62228 9.40082,11.62228 3.77384,0 6.0613,-1.51809 8.10748,-3.79523 l 2.35503,2.33628 z m -19.86333,-13.95857 c 5.69454,-0.0592 12.93336,-0.1873 12.93336,-0.50275 0,-5.37247 -2.97274,-8.52695 -7.42221,-8.52695 -0.5598,0 -1.17751,0.0591 -1.72766,0.12816 -2.35503,2.20813 -3.46498,5.24432 -3.77384,8.9114 z"
       id="path218"
       style="fill:#cfb991;stroke-width:0px" />
    <path
       class="cls-31"
       d="m 307.55647,112.71697 c 0,-1.64625 -0.0579,-5.81607 -0.18338,-6.76242 l -5.38569,-0.69004 v -3.85438 l 12.68242,-0.8872 c 0.12547,1.2618 0.18338,3.09534 0.25094,4.86973 3.03066,-2.96718 5.82002,-5.11617 9.65177,-5.11617 3.83175,0 6.67902,2.14899 8.03991,5.61892 3.21404,-3.28263 6.12887,-5.61892 10.14401,-5.61892 6.0613,0 9.09196,4.86973 9.09196,11.75043 v 17.43835 c 1.48637,0.69005 2.90518,1.13365 4.51702,1.38995 v 2.90803 h -16.02192 v -3.03618 c 1.42846,-0.25631 2.41294,-0.50275 3.71592,-1.20265 v -16.74831 c 0,-5.37247 -2.10408,-6.57511 -4.82588,-6.57511 -1.72766,0 -3.77384,0.88719 -5.87792,2.20813 0.18338,1.07449 0.30886,2.33629 0.30886,3.59808 v 17.50735 c 1.23542,0.69005 2.16199,0.94635 3.59045,1.20265 v 3.03618 h -15.09536 v -3.03618 c 1.41881,-0.2563 2.41295,-0.50275 3.64837,-1.20265 v -16.74831 c 0,-5.37247 -2.04617,-6.57511 -4.76797,-6.57511 -1.66975,0 -3.64837,0.81819 -5.62698,2.02084 v 21.29273 c 1.23543,0.69004 2.162,0.94634 3.59046,1.20264 v 3.03619 h -15.96402 v -2.90804 c 1.54429,-0.31545 3.09822,-0.63089 4.51703,-1.38994 v -16.74831 z"
       id="path219"
       style="fill:#cfb991;stroke-width:0px" />
    <path
       class="cls-31"
       d="m 373.23671,136.09954 c -2.28747,6.00336 -4.95135,9.98589 -9.52629,9.98589 -2.03652,0 -3.46498,-0.63089 -4.88379,-1.70539 l 0.96518,-4.80072 c 1.85313,0 4.4205,-0.1873 6.89135,-0.37459 0.8011,-1.3308 1.48638,-2.83903 2.162,-4.67257 l -12.37356,-28.6269 c -1.42846,-0.69004 -1.79523,-1.07449 -3.33951,-1.33079 v -3.66708 h 15.83854 v 3.59807 c -1.54428,0.2563 -2.53841,0.50275 -3.89931,1.26179 l 7.42221,18.76915 6.80449,-18.76915 c -1.23543,-0.6999 -2.35503,-1.01534 -3.83175,-1.26179 v -3.59807 h 13.85993 v 3.66708 c -1.54428,0.2563 -3.09822,0.63089 -4.51703,1.33079 l -11.57246,30.20414 z"
       id="path220"
       style="fill:#cfb991;stroke-width:0px" />
    <path
       class="cls-31"
       d="m 160.49257,133.76325 h 18.83059 v -3.42064 c -1.53463,-0.26616 -3.05961,-0.68018 -4.53633,-1.38008 L 160.05824,87.323413 h -8.78311 l -14.84441,41.639117 c -1.61184,0.75905 -3.2816,1.20264 -4.95135,1.44909 v 3.35163 h 15.71307 v -3.35163 c -1.72767,-0.2563 -3.2816,-0.69004 -4.82588,-1.44909 l 3.2816,-9.60144 h 16.58172 l 3.21404,9.60144 c -1.61184,0.75905 -3.2816,1.20264 -4.95135,1.44909 z m -13.24222,-19.21274 6.74658,-19.774641 6.62111,19.774641 z"
       id="path221"
       style="fill:#cfb991;stroke-width:0px" />
  </g>
</svg>
