<?xml version="1.0" encoding="UTF-8"?><svg id="main_lockup_positive" xmlns="http://www.w3.org/2000/svg" xmlns:xlink="http://www.w3.org/1999/xlink" viewBox="0 0 40 40"><defs><style>.cls-1{fill:url(#radial-gradient);}.cls-1,.cls-2,.cls-3,.cls-4,.cls-5,.cls-6{stroke-width:0px;}.cls-3{fill:#ceb990;}.cls-4{fill:#8e6f3e;}.cls-5{fill:#fff;}.cls-6{fill:#ebe3d3;}</style><radialGradient id="radial-gradient" cx="590.05" cy="-389.84" fx="590.05" fy="-400.2" r="16.03" gradientTransform="translate(-234.56 188.33) scale(.43)" gradientUnits="userSpaceOnUse"><stop offset=".11" stop-color="#dcb843"/><stop offset=".95" stop-color="#8e6f3e"/></radialGradient></defs><rect class="cls-2" x=".59" y=".75" width="39" height="38.67" rx="8.52" ry="8.52"/><path class="cls-6" d="M8.68,20.32c-.19.31-.4.62-.62.92-1.23,1.84-2.66,4.08-3.67,6.4-.06.13-.23.14-.29,0-1.12-2.6-1.49-5.65-1.31-8.59.04-2.29.44-4.57,1.31-6.6.05-.13.23-.12.29,0,1.24,2.83,3.11,5.57,4.47,7.57,0,0,0,.01-.01.02,0,0,0,0,.01.01-.06.08-.12.17-.17.26Z"/><path class="cls-6" d="M20.08,9.02s0,0,.01-.01c0,0,.01,0,.02.01,2-1.36,4.74-3.23,7.57-4.47.13-.06.13-.24,0-.29-2.02-.87-4.31-1.27-6.6-1.31-2.94-.18-5.99.19-8.59,1.31-.13.06-.12.23,0,.29,2.31,1.01,4.56,2.44,6.4,3.67.3.22.61.43.92.62.08.06.17.12.26.17Z"/><path class="cls-6" d="M10.06,18.61s2.52-3.25,4.01-4.73,4.64-3.89,4.64-3.89c0,0-4.69-2.99-6.67-4.25-.83-.53-1.45-.44-2.19.18-1.46,1.22-2.78,2.56-3.98,4.03-.58.71-.58,1.29-.14,2.07,1.24,2.19,4.18,6.58,4.32,6.59Z"/><path class="cls-3" d="M18.6,30.38s-3.25-2.52-4.73-4.01-3.89-4.64-3.89-4.64c0,0-2.99,4.69-4.25,6.67-.53.83-.44,1.45.18,2.19,1.22,1.46,2.56,2.78,4.03,3.98.71.58,1.29.58,2.07.14,2.19-1.24,6.58-4.18,6.59-4.32Z"/><path class="cls-4" d="M31.5,19.84c.19-.31.4-.62.62-.92,1.23-1.84,2.66-4.08,3.67-6.4.06-.13.23-.14.29,0,1.12,2.6,1.49,5.65,1.31,8.59-.04,2.29-.44,4.57-1.31,6.6-.05.13-.23.12-.29,0-1.24-2.83-3.11-5.57-4.47-7.57,0,0,0-.01.01-.02,0,0,0,0-.01-.01.06-.08.12-.17.17-.26Z"/><path class="cls-4" d="M20.1,31.14s0,0-.01.01c0,0-.01,0-.02-.01-2,1.36-4.74,3.23-7.57,4.47-.13.06-.13.24,0,.29,2.02.87,4.31,1.27,6.6,1.31,2.94.18,5.99-.19,8.59-1.31.13-.06.12-.23,0-.29-2.31-1.01-4.56-2.44-6.4-3.67-.3-.22-.61-.43-.92-.62-.08-.06-.17-.12-.26-.17Z"/><path class="cls-4" d="M30.11,21.55s-2.52,3.25-4.01,4.73-4.64,3.89-4.64,3.89c0,0,4.69,2.99,6.67,4.25.83.53,1.45.44,2.19-.18,1.46-1.22,2.78-2.56,3.98-4.03.58-.71.58-1.29.14-2.07-1.24-2.19-4.18-6.58-4.32-6.59Z"/><path class="cls-3" d="M21.57,9.78s3.25,2.52,4.73,4.01,3.89,4.64,3.89,4.64c0,0,2.99-4.69,4.25-6.67.53-.83.44-1.45-.18-2.19-1.22-1.46-2.56-2.78-4.03-3.98-.71-.58-1.29-.58-2.07-.14-2.19,1.24-6.58,4.18-6.59,4.32Z"/><path class="cls-1" d="M20.11,27c-.89-.72-2.69-2.22-3.7-3.24-1.2-1.2-2.28-2.43-3.24-3.66.75-.92,2.22-2.69,3.24-3.7,1.02-1.02,2.79-2.5,3.68-3.22.89.73,2.68,2.21,3.69,3.22,1.02,1.02,2.51,2.82,3.24,3.7-.95,1.24-2.04,2.47-3.24,3.66-1.2,1.19-2.43,2.28-3.66,3.24Z"/><path class="cls-5" d="M20.08,14.29c.94.78,2.27,1.91,3.08,2.72.82.82,1.96,2.17,2.74,3.1-.83,1.03-1.74,2.05-2.74,3.04-1,1-2.01,1.91-3.04,2.74-.94-.78-2.29-1.92-3.1-2.74-1-1-1.91-2.01-2.74-3.04.78-.94,1.92-2.29,2.74-3.1s2.14-1.94,3.07-2.72M20.08,12.06s-2.84,2.28-4.29,3.73-3.72,4.29-3.72,4.29h0c1.04,1.41,2.29,2.87,3.72,4.29s4.29,3.72,4.29,3.72c1.41-1.04,2.87-2.29,4.29-3.72,1.43-1.43,2.68-2.89,3.72-4.29h0s-2.29-2.87-3.72-4.29c-1.43-1.43-4.3-3.73-4.3-3.73h0Z"/></svg>